<svg xmlns="http://www.w3.org/2000/svg" viewBox="0 0 391.91 97.31"><defs><style>.cls-1{fill:#f15e4e;}.cls-2{fill:#ffe548;}.cls-3{fill:#5899d2;}</style></defs><title>edgyn-logo</title><g id="Layer_1" data-name="Layer 1"><path class="cls-1" d="M156.3,186.21v2a18,18,0,0,1-.1,1.85H120.93a8.58,8.58,0,0,0,1.22,3.72,10.6,10.6,0,0,0,2.64,2.88,13,13,0,0,0,7.77,2.59,13.36,13.36,0,0,0,6.44-1.42,12.8,12.8,0,0,0,4.3-3.66l11.14,7a22.52,22.52,0,0,1-9,7.67,29.9,29.9,0,0,1-13,2.69A31.14,31.14,0,0,1,122,209.81a25,25,0,0,1-8.54-5,22.89,22.89,0,0,1-5.77-8.06,27,27,0,0,1-2.1-10.94,27.49,27.49,0,0,1,2-10.79,24.5,24.5,0,0,1,5.57-8.21,24.82,24.82,0,0,1,8.31-5.23,28.53,28.53,0,0,1,10.35-1.85,26.34,26.34,0,0,1,9.87,1.8,21.61,21.61,0,0,1,7.72,5.23,24.21,24.21,0,0,1,5,8.31A32,32,0,0,1,156.3,186.21Zm-14.76-6.15a9.6,9.6,0,0,0-2.39-6.55q-2.4-2.73-7.18-2.73a12.13,12.13,0,0,0-4.3.73,11.37,11.37,0,0,0-3.42,2,9.79,9.79,0,0,0-2.34,3,8.6,8.6,0,0,0-1,3.57Z" transform="translate(-105.59 -136.09)"/><path class="cls-1" d="M203.09,210V203.6h-.19a15.27,15.27,0,0,1-6.7,5.72,21.86,21.86,0,0,1-9.23,2,21.6,21.6,0,0,1-9.77-2.15,22.48,22.48,0,0,1-7.28-5.71,25.21,25.21,0,0,1-4.54-8.26,30.71,30.71,0,0,1-1.56-9.77,29.28,29.28,0,0,1,1.61-9.72,25.3,25.3,0,0,1,4.59-8.16,21.41,21.41,0,0,1,16.76-7.62,18.61,18.61,0,0,1,9.08,2,20.17,20.17,0,0,1,5.77,4.5h.19V136.09h16V210Zm-.59-24.42a13,13,0,0,0-.83-4.59,12.85,12.85,0,0,0-2.34-4,11.75,11.75,0,0,0-3.66-2.83,10.79,10.79,0,0,0-4.89-1.08,10.93,10.93,0,0,0-5,1.08,11.55,11.55,0,0,0-3.62,2.78,11.43,11.43,0,0,0-2.19,4,14.7,14.7,0,0,0-.74,4.59,15.15,15.15,0,0,0,.74,4.64,12,12,0,0,0,2.19,4.06A11.26,11.26,0,0,0,185.8,197a10.93,10.93,0,0,0,5,1.07,10.78,10.78,0,0,0,4.89-1.07,11.75,11.75,0,0,0,3.66-2.83,13.39,13.39,0,0,0,3.17-8.6Z" transform="translate(-105.59 -136.09)"/><path class="cls-1" d="M282.13,205.36a34.11,34.11,0,0,1-2.06,12.41,23.09,23.09,0,0,1-5.76,8.74,23.66,23.66,0,0,1-9,5.18,38.33,38.33,0,0,1-11.77,1.71,47.87,47.87,0,0,1-13.24-2,36.59,36.59,0,0,1-11.77-5.67l8-11.43a23.65,23.65,0,0,0,7.77,4.64,24.76,24.76,0,0,0,8.35,1.51q7,0,10.41-3.71t3.37-9.87V204h-.3a15.63,15.63,0,0,1-6.05,4.69,20.42,20.42,0,0,1-8.7,1.76,23.23,23.23,0,0,1-9.87-2,21.66,21.66,0,0,1-7.27-5.42,23.85,23.85,0,0,1-4.55-8,29.35,29.35,0,0,1-1.56-9.62,29.87,29.87,0,0,1,1.56-9.67,24.91,24.91,0,0,1,4.55-8.11,21.67,21.67,0,0,1,17-7.72,21.49,21.49,0,0,1,8.8,1.86,15.31,15.31,0,0,1,6.74,5.76H267V161.3h15.15Zm-15.24-20a13.55,13.55,0,0,0-.83-4.69,12.14,12.14,0,0,0-2.4-3.95A11.31,11.31,0,0,0,260,174a11.7,11.7,0,0,0-4.89-1,11.35,11.35,0,0,0-4.83,1,10.72,10.72,0,0,0-3.57,2.64,11.69,11.69,0,0,0-2.24,3.91,14.23,14.23,0,0,0-.79,4.78,13.91,13.91,0,0,0,.79,4.69,12.23,12.23,0,0,0,2.24,4,11,11,0,0,0,3.57,2.73,10.79,10.79,0,0,0,4.83,1,11.54,11.54,0,0,0,8.65-3.71,11.93,11.93,0,0,0,2.35-3.91A13.78,13.78,0,0,0,266.89,185.33Z" transform="translate(-105.59 -136.09)"/><path class="cls-2" d="M322.28,217.28a43.35,43.35,0,0,1-3.27,6.79,20.51,20.51,0,0,1-4.3,5.08,17.06,17.06,0,0,1-5.87,3.18,26.49,26.49,0,0,1-8,1.07,39.31,39.31,0,0,1-4.64-.29,30.29,30.29,0,0,1-4.15-.78l1.76-13.49a17.21,17.21,0,0,0,2.59.64,15.59,15.59,0,0,0,2.59.24q3.71,0,5.37-1.71a13.79,13.79,0,0,0,2.83-4.83l1.57-4L288.48,161.3h17.78l10.84,31.26h.29l9.68-31.26h17Z" transform="translate(-105.59 -136.09)"/><path class="cls-2" d="M382.17,210V183.38a21.38,21.38,0,0,0-.35-3.91,10.87,10.87,0,0,0-1.12-3.27,5.94,5.94,0,0,0-2.2-2.25,7,7,0,0,0-3.56-.83,8.18,8.18,0,0,0-3.77.83,7.62,7.62,0,0,0-2.68,2.3,10.12,10.12,0,0,0-1.61,3.37,14.45,14.45,0,0,0-.54,4V210H350.22V161.3h15.53V168h.2a16,16,0,0,1,2.29-3.08,13.93,13.93,0,0,1,3.32-2.58,20.16,20.16,0,0,1,4.16-1.76,16.15,16.15,0,0,1,4.78-.69,18,18,0,0,1,8.31,1.76,15.9,15.9,0,0,1,5.52,4.54,18,18,0,0,1,3,6.4,29.39,29.39,0,0,1,.93,7.23V210Z" transform="translate(-105.59 -136.09)"/></g><g id="Layer_2" data-name="Layer 2"><polygon class="cls-3" points="293.96 97.13 321.8 0.13 391.91 0.13 363.07 97.13 293.96 97.13"/></g></svg>