<svg id="Layer_6" data-name="Layer 6" xmlns="http://www.w3.org/2000/svg" viewBox="0 0 110.88 97"><defs><style>.cls-1{fill:#5998d0;}.cls-2{fill:#fde748;}.cls-3{fill:#f05a48;}</style></defs><title>edgyn-small-logo</title><path class="cls-1" d="M326.53,72a12.88,12.88,0,0,1,6.6-1.93L343.5,35.2H273.39l-27.83,97h69.11l9.41-31.66C313.13,94.07,316.15,77.53,326.53,72Z" transform="translate(-245.56 -35.2)"/><line class="cls-1" x1="104.11" x2="102.08"/><path class="cls-2" d="M341.22,77.85a9.73,9.73,0,0,1,2.1,2.1,4.26,4.26,0,0,1,.21,4.54,8.35,8.35,0,0,1-.13,2.69,19.78,19.78,0,0,1,4.24,1.36V35.2l-11,38.22A4.77,4.77,0,0,1,341.22,77.85Z" transform="translate(-245.56 -35.2)"/><path class="cls-2" d="M328.17,105.29a5.47,5.47,0,0,1-.61-.13l-7.75,27h27.83V102.57C342.25,105.88,333.38,106,328.17,105.29Z" transform="translate(-245.56 -35.2)"/><path class="cls-3" d="M356.43,89.69v2a15.82,15.82,0,0,1-.1,1.86H321.07a8.45,8.45,0,0,0,1.22,3.71,10.43,10.43,0,0,0,2.63,2.88,12.9,12.9,0,0,0,7.77,2.59,13.43,13.43,0,0,0,6.45-1.42,12.69,12.69,0,0,0,4.3-3.66l11.14,7a22.57,22.57,0,0,1-9,7.67,30,30,0,0,1-13,2.69,31.14,31.14,0,0,1-10.36-1.71,25.13,25.13,0,0,1-8.55-5,23.09,23.09,0,0,1-5.76-8.06,27,27,0,0,1-2.1-10.94,27.33,27.33,0,0,1,2-10.8,24.45,24.45,0,0,1,5.57-8.21,24.91,24.91,0,0,1,8.3-5.22A28.34,28.34,0,0,1,332,63.21,26.06,26.06,0,0,1,341.87,65a21.5,21.5,0,0,1,7.72,5.22,24.06,24.06,0,0,1,5,8.31A31.86,31.86,0,0,1,356.43,89.69Zm-14.75-6.16A9.61,9.61,0,0,0,339.29,77q-2.4-2.74-7.19-2.74a12.07,12.07,0,0,0-4.29.73,11,11,0,0,0-3.42,2A9.85,9.85,0,0,0,322,80a8.69,8.69,0,0,0-1,3.56Z" transform="translate(-245.56 -35.2)"/></svg>